<?xml version="1.0" standalone="no"?><!DOCTYPE svg PUBLIC "-//W3C//DTD SVG 1.1//EN" "http://www.w3.org/Graphics/SVG/1.1/DTD/svg11.dtd"><svg t="1559117542713" class="icon" style="" viewBox="0 0 1024 1024" version="1.1" xmlns="http://www.w3.org/2000/svg" p-id="2106" xmlns:xlink="http://www.w3.org/1999/xlink" width="200" height="200"><defs><style type="text/css"></style></defs><path d="M709.57056 236.07296h165.15072v-69.632h-165.15072v69.632z m-33.60768 30.86336H921.6v595.82464H143.36V266.93632h113.4592l74.40384-76.86144H590.4384l0.9216 0.8192 84.62336 76.06272h-0.02048z m108.46208 183.7056c21.2992 0 38.64576-17.89952 38.64576-39.936 0-22.05696-17.32608-39.95648-38.64576-39.95648-21.2992 0-38.62528 17.89952-38.62528 39.936 0 22.05696 17.32608 39.936 38.62528 39.936zM468.33664 746.61888c52.75648 0 102.07232-21.2992 138.83392-59.92448a196.42368 196.42368 0 0 0 54.10816-139.53024c0-110.01856-86.56896-199.4752-192.9216-199.4752-106.41408 0-193.00352 89.4976-193.00352 199.4752s86.58944 199.45472 192.98304 199.45472z m-123.16672-199.45472c0-70.20544 55.25504-127.32416 123.14624-127.32416 67.2768 0 121.36448 55.93088 123.16672 127.32416 0 71.39328-54.0672 127.30368-123.16672 127.30368-67.8912 0-123.14624-57.09824-123.14624-127.30368z" p-id="2107" fill="#82529d"></path></svg>