<?xml version="1.0" standalone="no"?><!DOCTYPE svg PUBLIC "-//W3C//DTD SVG 1.1//EN" "http://www.w3.org/Graphics/SVG/1.1/DTD/svg11.dtd"><svg t="1556356289810" class="icon" style="" viewBox="0 0 1024 1024" version="1.1" xmlns="http://www.w3.org/2000/svg" p-id="1541" xmlns:xlink="http://www.w3.org/1999/xlink" width="200" height="200"><defs><style type="text/css"></style></defs><path d="M857.7 836.9H417.2c-48.9 0-88.6-39.7-88.6-88.6V165.5c0-48.9 39.7-88.6 88.6-88.6h342.4l186.7 203.5v467.9c0 48.9-39.8 88.6-88.6 88.6zM417.2 107.3c-32.1 0-58.2 26.1-58.2 58.2v582.8c0 32.1 26.1 58.2 58.2 58.2h440.5c32.1 0 58.3-26.1 58.3-58.2v-456l-169.7-185H417.2z" fill="#000000" p-id="1542"></path><path d="M606.8 947.1H166.3c-48.9 0-88.6-39.8-88.6-88.6V275.7c0-48.9 39.8-88.6 88.6-88.6h175.3c8.4 0 15.2 6.8 15.2 15.2s-6.8 15.2-15.2 15.2H166.3c-32.1 0-58.3 26.1-58.3 58.2v582.8c0 32.1 26.1 58.3 58.3 58.3h440.5c32.1 0 58.2-26.1 58.2-58.3v-33.6c0-8.4 6.8-15.2 15.2-15.2 8.4 0 15.2 6.8 15.2 15.2v33.6c0 48.8-39.7 88.6-88.6 88.6zM826.6 301.7c-23.7 0-46-9.2-62.8-26-16.8-16.8-26.1-39.1-26.1-62.9V92.1c0-8.4 6.8-15.2 15.2-15.2 8.4 0 15.2 6.8 15.2 15.2v120.7c0 15.6 6.1 30.4 17.2 41.4s25.7 17.1 41.3 17.1h0.1l104.4-0.2c8.4 0 15.2 6.8 15.2 15.1 0 8.4-6.8 15.2-15.1 15.2l-104.4 0.2c-0.1 0.1-0.2 0.1-0.2 0.1z" fill="#000000" p-id="1543"></path><path d="M433.4 386.5c4.7 2.5 119 4.8 128.4-0.2 12.5-6.6 17.8-12.7 13-25.7-2.1-5.6-6.5-11.3-11.4-14.6-9.3-6.1-19.5-11.1-29.7-15.5-16.7-7.1-18.7-13-7.6-27.5 10.6-13.8 15.3-29.3 14.5-46.6-1.1-23-17.2-39.1-39.9-39.5-23.7-0.4-40.6 14.8-42.6 38-1.7 19.8 4.7 36.7 16.7 52.1 7.7 9.8 5.7 15.6-5.5 20.8-10.8 5-21.4 10.7-31.7 16.7-4.1 2.4-7.8 5.9-10.8 9.6-8.8 11.1-5.9 25.6 6.6 32.4zM681.8 553.9H433.4c-8.4 0-15.2-6.8-15.2-15.2 0-8.4 6.8-15.2 15.2-15.2h248.4c8.4 0 15.2 6.8 15.2 15.2 0 8.4-6.8 15.2-15.2 15.2zM847 673.3H433.4c-8.4 0-15.2-6.8-15.2-15.2s6.8-15.2 15.2-15.2H847c8.4 0 15.2 6.8 15.2 15.2s-6.8 15.2-15.2 15.2zM343.7 574.9H196.3c-8.4 0-15.2-6.8-15.2-15.2 0-8.4 6.8-15.2 15.2-15.2h147.4c8.4 0 15.2 6.8 15.2 15.2 0 8.4-6.8 15.2-15.2 15.2zM343.7 402.5H196.3c-8.4 0-15.2-6.8-15.2-15.2s6.8-15.2 15.2-15.2h147.4c8.4 0 15.2 6.8 15.2 15.2s-6.8 15.2-15.2 15.2zM343.7 751.3H196.3c-8.4 0-15.2-6.8-15.2-15.2 0-8.4 6.8-15.2 15.2-15.2h147.4c8.4 0 15.2 6.8 15.2 15.2 0 8.4-6.8 15.2-15.2 15.2z" fill="#000000" p-id="1544"></path></svg>