<?xml version="1.0" standalone="no"?><!DOCTYPE svg PUBLIC "-//W3C//DTD SVG 1.1//EN" "http://www.w3.org/Graphics/SVG/1.1/DTD/svg11.dtd"><svg t="1550562373738" class="icon" style="" viewBox="0 0 1280 1024" version="1.1" xmlns="http://www.w3.org/2000/svg" p-id="2372" xmlns:xlink="http://www.w3.org/1999/xlink" width="250" height="200"><defs><style type="text/css"></style></defs><path d="M1200 0H80a80 80 0 0 0-80 80v864a80 80 0 0 0 80 80h1120a80 80 0 0 0 17.6-2 40 40 0 0 0 27.2-10.4v-2.4A80 80 0 0 0 1280 944V80a80 80 0 0 0-80-80zM640 584L90 90h1103.2zM80 188.4L448.8 520 80 887.6z m428.4 383.6l106.4 95.6a40 40 0 0 0 53.2 0l113.2-101.2 346.8 377.6H136.4zM840 512.8l360-320v712z" fill="#ffce3d" p-id="2373"></path></svg>