<?xml version="1.0" standalone="no"?><!DOCTYPE svg PUBLIC "-//W3C//DTD SVG 1.1//EN" "http://www.w3.org/Graphics/SVG/1.1/DTD/svg11.dtd"><svg t="1559117585252" class="icon" style="" viewBox="0 0 1024 1024" version="1.1" xmlns="http://www.w3.org/2000/svg" p-id="3146" xmlns:xlink="http://www.w3.org/1999/xlink" width="200" height="200"><defs><style type="text/css"></style></defs><path d="M759.182222 450.702222a26.737778 26.737778 0 0 0-53.333333 0 166.968889 166.968889 0 0 1-129.991111 167.964445 26.595556 26.595556 0 0 0-26.595556-25.457778h-72.248889a26.595556 26.595556 0 0 0-26.595555 26.026667 166.968889 166.968889 0 0 1-132.266667-168.533334 26.737778 26.737778 0 0 0-53.333333 0c0 115.057778 73.813333 200.248889 185.6 223.004445v13.226666a26.595556 26.595556 0 0 0 26.595555 26.595556h72.248889a26.737778 26.737778 0 0 0 26.737778-26.595556v-14.222222c110.364444-23.04 183.182222-107.804444 183.182222-222.008889z" fill="#30e9b2" p-id="3147"></path><path d="M915.768889 477.013333a226.275556 226.275556 0 0 0-51.2-107.235555A26.595556 26.595556 0 0 0 824.888889 404.053333a173.084444 173.084444 0 0 1 38.4 82.346667 1649.777778 1649.777778 0 0 1 21.76 288.853333 73.102222 73.102222 0 0 1-68.551111 72.96 4888.177778 4888.177778 0 0 1-608.995556 0 73.102222 73.102222 0 0 1-68.551111-72.96A1649.777778 1649.777778 0 0 1 160.711111 486.4a174.506667 174.506667 0 0 1 99.555556-128 613.404444 613.404444 0 0 1 170.666666-49.635556h1.137778A598.755556 598.755556 0 0 1 725.333333 342.471111a26.737778 26.737778 0 0 0 18.773334-49.92c-4.266667-1.706667-8.675556-2.986667-13.084445-4.551111a82.204444 82.204444 0 0 0-80.213333-105.671111 97.137778 97.137778 0 0 0-11.093333 0.853333A88.746667 88.746667 0 0 0 588.373333 128a202.808889 202.808889 0 0 0-152.746666 0A88.746667 88.746667 0 0 0 384 183.182222a97.137778 97.137778 0 0 0-11.093333-0.853333 83.626667 83.626667 0 0 0-83.626667 83.484444 81.92 81.92 0 0 0 3.413333 22.044445c-18.488889 6.542222-36.835556 14.222222-54.897777 22.044444a227.555556 227.555556 0 0 0-129.564445 167.111111A1701.688889 1701.688889 0 0 0 85.333333 775.253333a126.72 126.72 0 0 0 118.613334 126.293334c102.115556 6.257778 204.942222 9.528889 307.768889 9.528889s205.653333-3.271111 307.768888-9.528889A126.72 126.72 0 0 0 938.666667 775.253333a1701.688889 1701.688889 0 0 0-22.897778-298.24zM680.817778 265.813333a30.151111 30.151111 0 0 1 0 6.257778c-16.782222-4.408889-33.564444-8.106667-50.488889-11.235555A89.173333 89.173333 0 0 0 640 237.511111a32 32 0 0 1 10.24-1.848889 30.293333 30.293333 0 0 1 30.577778 30.151111zM455.111111 177.493333a148.906667 148.906667 0 0 1 113.777778 0 36.408889 36.408889 0 0 1 22.044444 34.275556v5.12a37.262222 37.262222 0 0 1-13.084444 23.466667v0.711111a36.835556 36.835556 0 0 1-23.182222 8.248889h-83.911111a36.835556 36.835556 0 0 1-23.182223-7.537778v-0.711111a39.395556 39.395556 0 0 1-6.684444-7.111111 37.973333 37.973333 0 0 1-6.4-16.355556v-0.853333-4.266667A36.408889 36.408889 0 0 1 455.111111 177.493333z m-112.071111 88.32a30.293333 30.293333 0 0 1 30.293333-30.151111 28.444444 28.444444 0 0 1 10.24 1.991111 89.031111 89.031111 0 0 0 10.524445 23.04c-16.782222 3.128889-33.564444 7.111111-50.204445 11.52a32.995556 32.995556 0 0 1-0.711111-6.4z" fill="#30e9b2" p-id="3148"></path><path d="M445.297778 751.786667A26.737778 26.737778 0 0 0 440.888889 804.977778c24.035556 1.848889 48.071111 2.844444 72.248889 2.844444s48.355556-0.995556 72.248889-2.844444a26.737778 26.737778 0 0 0-4.266667-53.191111 866.133333 866.133333 0 0 1-135.822222 0z" fill="#30e9b2" p-id="3149"></path></svg>