<?xml version="1.0" standalone="no"?><!DOCTYPE svg PUBLIC "-//W3C//DTD SVG 1.1//EN" "http://www.w3.org/Graphics/SVG/1.1/DTD/svg11.dtd"><svg t="1558970271836" class="icon" style="" viewBox="0 0 1024 1024" version="1.1" xmlns="http://www.w3.org/2000/svg" p-id="2270" xmlns:xlink="http://www.w3.org/1999/xlink" width="200" height="200"><defs><style type="text/css"></style></defs><path d="M355.4 397.1c-6.7-15.4-18.5-28.1-34.5-35.2-0.6-0.3-1.3-0.5-1.9-0.7-2.3-11.4-4.9-22.1-9-25.5-9.3-7.6-45.6-1.9-53.5 4-3.9 2.9-3.5 15.7-3 28.8-12.2 8.1-22.4 19.8-29 34.5-0.3 0.8-0.6 1.6-0.9 2.3-12.2 1.4-24.2 3-26.6 7.1-4.8 8.3 1.3 52.2 6.9 56.7 2.5 2 12 2.7 22.4 3.2 7 13 17.8 23.7 31.9 29.9 2.6 1.1 5.2 2 7.8 2.8 2.3 9.6 5.1 18.4 8.9 21 9 6.2 39.5 3.2 46-3.1 3.2-3.1 4-15.2 4.4-27.2 11.9-7.8 21.9-19.1 28.5-33.2 10-2 19.7-4.5 22.8-8.4 6.9-8.5 4.7-51.8-4.1-55.7-3.5-1.5-10.1-1.5-17.1-1.3zM571.9 353.4c-27.3-18.2-66-8.2-86.4 22.3-20.5 30.6-15 70.2 12.3 88.4 27.3 18.2 66 8.3 86.4-22.3 20.5-30.5 15-70.1-12.3-88.4z" fill="#fb8108" p-id="2271"></path><path d="M832.9 186.6c-32.2-24-128.2-12.4-148.8 0-20.7 12.4-20.7 39.3-31 59.9-10.3 20.7-206.7 45.5-227.4 41.3-20.7-4.2-39.3-41.3-51.7-55.8-12.4-14.5-138.3-10-167.4 14.5C30.2 394.7 61.2 790.8 75.7 819.8c14.5 28.9 110.4 49.1 172.3 9.6 60.6-38.6 135.6-232 156.3-248.6s230.9-50.5 264-29.8c33.1 20.7 73.7 188.8 113 201.2 39.3 12.4 81.3 18.9 130.9-26.2 90.9-82.6 45.4-446.4-79.3-539.4zM383.8 474.9c-25.5 57.1-89.1 84.3-142.1 60.7-53-23.7-75.2-89.2-49.7-146.3 25.5-57.2 89.1-84.4 142.1-60.7 53 23.6 75.2 89.1 49.7 146.3z m215.7-19.2c-27.2 40.6-78.6 53.9-114.8 29.6-36.2-24.2-43.5-76.8-16.3-117.4 27.2-40.6 78.5-53.9 114.7-29.6 36.3 24.3 43.6 76.8 16.4 117.4z m144.5-158c4.1-23.3 22.8-39.4 41.9-36.1 19.1 3.3 31.3 24.9 27.2 48.2-4.1 23.2-22.8 39.4-41.9 36.1-19-3.4-31.2-24.9-27.2-48.2z m3.1 103c-4.1 23.2-22.8 39.4-41.9 36.1-19.1-3.3-31.3-24.9-27.2-48.2 4.1-23.3 22.8-39.4 41.9-36.1s31.2 24.9 27.2 48.2z m74.4 74.4c-4.1 23.2-22.8 39.4-41.9 36.1-19.1-3.3-31.3-24.9-27.2-48.2 4.1-23.2 22.8-39.4 41.9-36.1 19 3.4 31.2 24.9 27.2 48.2z m57.8-90.9c-4.1 23.3-22.8 39.4-41.9 36.1-19.1-3.3-31.3-24.9-27.2-48.2 4.1-23.3 22.8-39.4 41.9-36.1 19.1 3.3 31.3 24.9 27.2 48.2z" fill="#fb8108" p-id="2272"></path></svg>