<?xml version="1.0" standalone="no"?><!DOCTYPE svg PUBLIC "-//W3C//DTD SVG 1.1//EN" "http://www.w3.org/Graphics/SVG/1.1/DTD/svg11.dtd"><svg t="1550507170128" class="icon" style="" viewBox="0 0 1024 1024" version="1.1" xmlns="http://www.w3.org/2000/svg" p-id="1760" xmlns:xlink="http://www.w3.org/1999/xlink" width="200" height="200"><defs><style type="text/css"></style></defs><path d="M512 4.096C231.424 4.096 4.096 231.424 4.096 512s227.328 508.928 508.416 508.928 508.416-227.328 508.416-508.928S792.576 4.096 512 4.096z m0 941.568c-239.616 0-433.664-194.048-433.664-433.664S272.384 78.336 512 78.336s433.664 194.048 433.664 433.664-194.048 433.664-433.664 433.664z" fill="#07a4f8" p-id="1761"></path><path d="M708.608 290.304h-168.96c-14.336 0-25.6 11.264-25.6 25.6s11.264 25.6 25.6 25.6h100.864L489.472 492.544c-53.248-32.768-124.416-24.064-167.936 26.624-41.472 48.128-41.472 120.832 0 168.96 52.736 61.44 146.432 61.44 199.168 0 36.864-43.008 40.96-105.472 11.776-153.088l150.528-150.528v100.352c0 14.336 11.264 25.6 25.6 25.6s25.6-11.264 25.6-25.6v-168.96c0-14.336-11.264-25.6-25.6-25.6z m-231.936 368.64c-30.72 30.72-80.384 30.208-110.592 0-30.72-30.72-30.208-80.384 0-110.592 30.208-30.208 79.36-30.72 110.592 0 30.72 30.72 30.208 80.384 0 110.592z" fill="#07a4f8" p-id="1762"></path></svg>