<?xml version="1.0" standalone="no"?><!DOCTYPE svg PUBLIC "-//W3C//DTD SVG 1.1//EN" "http://www.w3.org/Graphics/SVG/1.1/DTD/svg11.dtd"><svg t="1554292919756" class="icon" style="" viewBox="0 0 1024 1024" version="1.1" xmlns="http://www.w3.org/2000/svg" p-id="1491" xmlns:xlink="http://www.w3.org/1999/xlink" width="200" height="200"><defs><style type="text/css"></style></defs><path d="M802.133333 85.333333h-580.266666C98.986667 85.333333 0 184.32 0 307.2v409.6c0 122.88 98.986667 221.866667 221.866667 221.866667h580.266666c122.88 0 221.866667-98.986667 221.866667-221.866667V307.2c0-122.88-98.986667-221.866667-221.866667-221.866667z m-92.16 440.32l-307.2 204.8c-3.413333 3.413333-6.826667 3.413333-10.24 3.413334-3.413333 0-6.826667 0-6.826666-3.413334-6.826667 0-10.24-6.826667-10.24-13.653333V307.2c0-6.826667 3.413333-13.653333 10.24-13.653333s13.653333-3.413333 17.066666 0l307.2 204.8c3.413333 3.413333 6.826667 6.826667 6.826667 13.653333s-3.413333 10.24-6.826667 13.653333z" fill="#707070" p-id="1492"></path></svg>