<?xml version="1.0" standalone="no"?><!DOCTYPE svg PUBLIC "-//W3C//DTD SVG 1.1//EN" "http://www.w3.org/Graphics/SVG/1.1/DTD/svg11.dtd"><svg t="1556516647480" class="icon" style="" viewBox="0 0 1024 1024" version="1.1" xmlns="http://www.w3.org/2000/svg" p-id="2633" xmlns:xlink="http://www.w3.org/1999/xlink" width="200" height="200"><defs><style type="text/css"></style></defs><path d="M912 696.6v153.9c0 12.8-4.4 23.8-13.4 32.7-9 9-19.9 13.4-32.7 13.4H158.1c-12.8 0-23.8-4.4-32.7-13.4-9-9-13.4-19.9-13.4-32.7V696.6c0-12.8 4.4-23.8 13.4-32.7 9-9 19.9-13.4 32.7-13.4h205.3c6.8 18 18 32.7 33.9 44.2s33.6 17.3 53.1 17.3h123.1c19.5 0 37.2-5.8 53.1-17.3 15.9-11.5 27.2-26.3 33.9-44.2h205.3c12.8 0 23.8 4.4 32.7 13.4 8.9 9 13.5 19.9 13.5 32.7zM755.8 385c-5.5 12.8-14.9 19.2-28.4 19.2H604.3v215.4c0 8.3-3 15.6-9.1 21.6s-13.3 9.1-21.6 9.1H450.4c-8.3 0-15.6-3-21.6-9.1s-9.1-13.2-9.1-21.6V404.3H296.6c-13.4 0-23-6.4-28.4-19.2-5.5-12.5-3.2-23.6 6.8-33.2l215.4-215.4c5.8-6.1 12.9-9.1 21.6-9.1 8.7 0 15.9 3 21.6 9.1L749 351.9c9.9 9.6 12.1 20.6 6.8 33.1z m-37.6 440.9c6.1-6.1 9.1-13.2 9.1-21.6 0-8.3-3-15.6-9.1-21.6s-13.3-9.1-21.6-9.1-15.6 3-21.6 9.1-9.1 13.3-9.1 21.6 3 15.6 9.1 21.6 13.2 9.1 21.6 9.1c8.3 0 15.6-3 21.6-9.1z m123.1 0c6.1-6.1 9.1-13.2 9.1-21.6 0-8.3-3-15.6-9.1-21.6s-13.3-9.1-21.6-9.1-15.6 3-21.6 9.1-9.1 13.3-9.1 21.6 3 15.6 9.1 21.6 13.2 9.1 21.6 9.1c8.3 0 15.5-3 21.6-9.1z" p-id="2634" fill="#515151"></path></svg>