<?xml version="1.0" standalone="no"?><!DOCTYPE svg PUBLIC "-//W3C//DTD SVG 1.1//EN" "http://www.w3.org/Graphics/SVG/1.1/DTD/svg11.dtd"><svg t="1550472191501" class="icon" style="" viewBox="0 0 1153 1024" version="1.1" xmlns="http://www.w3.org/2000/svg" p-id="2424" xmlns:xlink="http://www.w3.org/1999/xlink" width="225.1953125" height="200"><defs><style type="text/css"></style></defs><path d="M1153.708949 576.849917a74.645602 74.645602 0 0 0-22.025339-53.155862L630.015176 22.025621A74.701981 74.701981 0 0 0 576.849917 0.000282a74.720774 74.720774 0 0 0-53.155862 22.015942l-501.677831 501.677831A74.720774 74.720774 0 0 0 0.000282 576.849917c0 20.080268 7.827264 38.957788 22.025339 53.165259l109.722645-109.722645v428.535664c0 41.447854 33.723951 75.171805 75.171804 75.171805h739.878487c41.447854 0 75.171805-33.723951 75.171804-75.171805V520.292531l109.722645 109.722645a74.701981 74.701981 0 0 0 22.015943-53.165259z m-516.035646 371.978278H516.026531V764.957962a60.889162 60.889162 0 0 1 60.823386-60.823387 60.889162 60.889162 0 0 1 60.823386 60.823387v183.870233z m309.115857 0H712.845108V764.957962c0-74.983875-61.011316-135.995191-135.995191-135.995191s-135.995191 61.011316-135.995191 135.995191v183.870233H206.92007V445.120726L576.849917 75.172086l369.939243 369.939244v503.716865z" fill="" p-id="2425"></path></svg>