<?xml version="1.0" standalone="no"?><!DOCTYPE svg PUBLIC "-//W3C//DTD SVG 1.1//EN" "http://www.w3.org/Graphics/SVG/1.1/DTD/svg11.dtd"><svg t="1559026298058" class="icon" style="" viewBox="0 0 1025 1024" version="1.1" xmlns="http://www.w3.org/2000/svg" p-id="1823" xmlns:xlink="http://www.w3.org/1999/xlink" width="200.1953125" height="200"><defs><style type="text/css"></style></defs><path d="M292.079596 312.293157L593.237002 11.134757l23.127487 23.127488-301.156411 301.157405z" fill="#d6204b" p-id="1824"></path><path d="M847.136311 1024H172.88699C78.142136 1024 0.994175 946.852039 0.994175 852.107184V177.857864C0.994175 83.11301 78.142136 5.965049 172.88699 5.965049h674.249321C941.881165 5.965049 1019.029126 83.11301 1019.029126 177.857864V852.007767c0 94.844272-77.147961 171.992233-171.892815 171.992233zM172.88699 38.673398c-76.750291 0-139.184466 62.434175-139.184466 139.184466V852.007767c0 76.750291 62.434175 139.184466 139.184466 139.184466h674.249321c76.750291 0 139.184466-62.434175 139.184466-139.184466V177.857864c0-76.750291-62.434175-139.184466-139.184466-139.184466H172.88699z" fill="#d6204b" p-id="1825"></path><path d="M511.105243 813.433786c-164.535922 0-298.451262-133.91534-298.451262-298.451262s133.91534-298.451262 298.451262-298.451262S809.556505 350.446602 809.556505 514.982524 675.641165 813.433786 511.105243 813.433786z m0-564.194174c-146.541359 0-265.742913 119.201553-265.742913 265.742912s119.201553 265.742913 265.742913 265.742913S776.848155 661.523883 776.848155 514.982524 657.646602 249.239612 511.105243 249.239612z m99.715728 493.508349c-4.772039 0-9.544078-0.39767-14.415534-1.093592-23.959612-3.777864-44.936699-16.702136-59.252816-36.287379-14.216699-19.585243-19.982913-43.544854-16.205048-67.504466 3.777864-23.959612 16.702136-44.936699 36.287378-59.252815 19.585243-14.216699 43.544854-19.982913 67.504466-16.205049 23.959612 3.777864 44.936699 16.702136 59.252816 36.287379 14.216699 19.585243 19.982913 43.544854 16.205049 67.504466-3.777864 23.959612-16.702136 44.936699-36.287379 59.252815-15.608544 11.333592-34.100194 17.298641-53.088932 17.298641z m-0.198835-148.728544c-11.83068 0-23.760777 3.579029-34.000777 11.03534-12.526602 9.146408-20.778252 22.567767-23.164272 37.878059-2.386019 15.310291 1.292427 30.620583 10.339418 43.147184 9.146408 12.526602 22.567767 20.778252 37.878058 23.164272 15.310291 2.386019 30.620583-1.292427 43.147185-10.339418 12.526602-9.146408 20.778252-22.567767 23.164271-37.878058 2.386019-15.310291-1.292427-30.620583-10.339417-43.147184-11.43301-15.608544-29.12932-23.860194-47.024466-23.860195zM411.389515 742.747961c-18.49165 0-37.182136-5.666796-53.18835-17.298641-19.585243-14.216699-32.509515-35.293204-36.287379-59.252815-3.777864-23.959612 1.98835-47.919223 16.205049-67.504466 14.216699-19.585243 35.293204-32.509515 59.252815-36.287379 23.959612-3.777864 47.919223 1.98835 67.504467 16.205049 40.462913 29.427573 49.509903 86.294369 20.08233 126.757281-17.696311 24.357282-45.433786 37.380971-73.568932 37.380971z m0.298252-148.728544c-3.081942 0-6.163883 0.198835-9.245825 0.695923-15.310291 2.386019-28.73165 10.63767-37.878059 23.164272-9.146408 12.526602-12.824854 27.836893-10.339417 43.147184 2.386019 15.310291 10.63767 28.73165 23.164272 37.878058 25.848544 18.789903 62.23534 13.023689 81.025243-12.824854s13.023689-62.23534-12.824855-81.025243c-9.941748-7.257476-21.772427-11.03534-33.901359-11.03534z m99.417476-14.813203c-35.392621 0-64.223689-28.831068-64.22369-64.22369s28.831068-64.223689 64.22369-64.223689c35.392621 0 64.223689 28.831068 64.223689 64.223689s-28.831068 64.223689-64.223689 64.22369z m0-95.639612c-17.398058 0-31.51534 14.117282-31.51534 31.51534s14.117282 31.51534 31.51534 31.51534 31.51534-14.117282 31.51534-31.51534-14.117282-31.51534-31.51534-31.51534zM672.062136 553.457087c-14.117282 0-28.135146-3.380194-41.059418-9.941747-21.573592-11.03534-37.579806-29.725825-45.135534-52.79068-7.456311-23.064854-5.567379-47.620971 5.467962-69.194563 11.03534-21.573592 29.725825-37.579806 52.790679-45.135534 23.064854-7.456311 47.620971-5.567379 69.194563 5.467961 21.573592 11.03534 37.579806 29.725825 45.135534 52.79068 7.456311 23.064854 5.567379 47.620971-5.467961 69.194563-11.03534 21.573592-29.725825 37.579806-52.790679 45.135534-9.245825 2.982524-18.690485 4.473786-28.135146 4.473786z m0.198835-148.827961c-6.064466 0-12.128932 0.994175-17.994563 2.883107-14.713786 4.772039-26.743301 15.012039-33.801942 28.831068-7.058641 13.819029-8.25165 29.52699-3.479612 44.240777 4.772039 14.713786 15.012039 26.743301 28.831068 33.801941 13.819029 7.058641 29.52699 8.25165 44.240777 3.479612 14.713786-4.772039 26.743301-15.012039 33.801942-28.831068 7.058641-13.819029 8.25165-29.52699 3.479611-44.240777-4.772039-14.713786-15.012039-26.743301-28.831068-33.801941-8.25165-4.274951-17.199223-6.362718-26.246213-6.362719z m-322.112621 148.827961c-9.44466 0-18.88932-1.491262-28.135146-4.473786-23.064854-7.456311-41.75534-23.462524-52.79068-45.135534-11.03534-21.573592-12.924272-46.229126-5.467961-69.194563 7.456311-23.064854 23.462524-41.75534 45.135534-52.79068 21.573592-11.03534 46.229126-12.924272 69.194563-5.467961 47.620971 15.509126 73.66835 66.709126 58.258641 114.330097-7.456311 23.064854-23.462524 41.75534-45.135534 52.79068-12.924272 6.561553-26.942136 9.941748-41.059417 9.941747zM349.949515 404.629126c-9.04699 0-17.994563 2.087767-26.246214 6.362719-13.819029 7.058641-24.059029 18.988738-28.831068 33.801941-4.772039 14.713786-3.579029 30.421748 3.479612 44.240777 7.058641 13.819029 18.988738 24.059029 33.801941 28.831068 30.421748 9.84233 63.229515-6.859806 73.071845-37.281553 9.84233-30.421748-6.859806-63.229515-37.281553-73.071845-5.865631-1.98835-11.930097-2.883107-17.994563-2.883107z m161.155728 31.714175c-50.00699 0-90.768155-40.661748-90.768156-90.768155 0-50.00699 40.661748-90.768155 90.768156-90.768156s90.768155 40.661748 90.768155 90.768156-40.761165 90.768155-90.768155 90.768155z m0-148.728544c-32.012427 0-58.059806 26.047379-58.059806 58.059806s26.047379 58.059806 58.059806 58.059806 58.059806-26.047379 58.059806-58.059806-26.047379-58.059806-58.059806-58.059806z" fill="#d6204b" p-id="1826"></path><path d="M300.130423 726.134307l22.881927-23.370066 299.194904 292.95447-22.88292 23.370066z" fill="#d6204b" p-id="1827"></path></svg>