<svg version="1.1" xmlns="http://www.w3.org/2000/svg" xmlns:xlink="http://www.w3.org/1999/xlink" x="0px" y="0px" width="250" height="250" viewBox="0 0 200 320" xml:space="preserve">

	<g id="svg-content">
		<g transform="matrix(0.70,0,0,0.70,30,40)">
			
<g id="XMLID_256_">
	<g id="XMLID_36_">
		<g id="XMLID_498_">
			<path id="XMLID_232_" fill="#FAD501" d="M197.4,97.9c0-53.3-42.8-96.6-96-97.4C47.6-0.3,3.1,43.1,2.6,96.9
				c-0.3,27.8,11.1,52.9,29.5,70.8l0,0c4.1,5.2,0.7,18.7,0.7,26.5s15.7,6.4,15.7,0.5c0-4.7,6.8-7.1,9.6-7.9c0.7-0.2,1.5-0.1,2.2,0.2
				c12.1,5.4,25.5,8.4,39.7,8.4c13.3,0,35.5-7.1,40.1-8.6c0.6-0.2,1.2-0.2,1.8,0c2.7,0.7,9.9,3.1,9.9,8c0,5.9,15.7,7.3,15.7-0.5
				s-3.4-21.2,0.7-26.5c0.3-0.3,0.4-0.6,0.4-0.7C186.4,149.4,197.4,124.9,197.4,97.9z"/>
			<path id="XMLID_231_" fill="#261F1F" d="M160.1,200c-4.3,0-8.7-2-8.7-5.4c0-4.6-7.3-6.9-9.5-7.5c-0.5-0.1-1.1-0.1-1.6,0
				c-4.4,1.4-26.9,8.6-40.3,8.6c-13.9,0-27.3-2.8-39.9-8.5c-0.6-0.3-1.3-0.3-1.9-0.1c-2.8,0.8-9.3,3.1-9.3,7.5
				c0,3.4-4.4,5.4-8.7,5.4c-2.1,0-4-0.5-5.4-1.3c-1.7-1-2.5-2.6-2.5-4.5c0-2.3,0.3-5.1,0.6-8.1c0.7-6.8,1.5-14.6-1.2-18.1l0,0
				c-9.4-9.1-16.7-19.8-21.8-31.8C4.6,123.7,2,110.5,2.1,96.9c0.3-26.1,10.8-50.6,29.6-69S75.3-0.4,101.5,0
				c25.8,0.4,50.1,10.7,68.2,29.1c18.2,18.4,28.2,42.8,28.2,68.7c0,26.2-10.2,50.9-28.8,69.4c-0.1,0.2-0.2,0.4-0.4,0.7
				c-2.8,3.5-1.9,11.3-1.2,18.1c0.3,3,0.6,5.8,0.6,8.1c0,1.9-0.9,3.4-2.5,4.5C164.1,199.5,162.2,200,160.1,200z M141.1,186.1
				c0.3,0,0.6,0,1,0.1c3.1,0.8,10.2,3.3,10.2,8.4c0,2.8,4.1,4.5,7.8,4.5c1.9,0,3.7-0.4,4.9-1.2c1.4-0.9,2.1-2.1,2.1-3.7
				c0-2.3-0.3-5-0.6-8c-0.7-7-1.6-14.9,1.4-18.8c0.2-0.2,0.2-0.3,0.3-0.4v-0.2l0.2-0.2c18.5-18.3,28.7-42.8,28.7-68.8
				C197,72.2,187,48,169,29.8S127,1.3,101.4,0.9C75.5,0.5,51,10.4,32.3,28.6C13.7,46.7,3.3,71,3,96.9c-0.1,13.5,2.5,26.6,7.7,38.9
				c5.1,11.9,12.3,22.5,21.6,31.5v0.1c3,3.9,2.2,11.8,1.4,18.8c-0.3,2.9-0.6,5.7-0.6,8c0,1.6,0.7,2.8,2.1,3.7c1.2,0.8,3,1.2,4.9,1.2
				c3.8,0,7.8-1.7,7.8-4.5c0-5,7-7.5,10-8.3c0.8-0.2,1.7-0.2,2.5,0.2c12.5,5.6,25.8,8.4,39.5,8.4c13.2,0,35.6-7.1,40-8.6
				C140.4,186.2,140.7,186.1,141.1,186.1z"/>
		</g>
		<g id="XMLID_479_" opacity="0.4">
			<ellipse id="XMLID_622_" fill="#8C8C8C" cx="100" cy="57.9" rx="53.8" ry="50.6"/>
		</g>
		<g id="XMLID_482_">
			<path id="XMLID_621_" fill="#FEF789" d="M100,88L100,88c-56,0-81.5,36.5-65.7,65.7l0.4,0.8c10.6,19.4,38.6,31.1,65.3,31.1l0,0
				c26.7,0,54.7-11.7,65.3-31.1l0.4-0.8C181.5,124.5,156,88,100,88z"/>
		</g>
		<g id="XMLID_240_" opacity="0.4">
			<ellipse id="XMLID_230_" fill="#ADADAD" cx="100" cy="83.2" rx="56.3" ry="39.2"/>
		</g>
		<g id="XMLID_478_">
			<path id="XMLID_229_" fill="#7C7C7C" d="M56.2,29.5l-3.1,11.7l-9.5-6.8c-0.5-0.3-0.6-1.2-0.4-2.2l0,0l0,0l0,0
				c0.2-0.9,0.8-1.6,1.4-1.7L56.2,29.5z"/>
			<path id="XMLID_228_" d="M53.4,42l-10.1-7.1c-0.6-0.4-0.9-1.5-0.5-2.7c0.3-1.2,1-2,1.8-2.1L56.8,29L53.4,42z M55.6,30.1l-11,1
				c-0.3,0-0.8,0.6-1,1.4l0,0c-0.2,0.8-0.1,1.5,0.2,1.7l9,6.4L55.6,30.1z"/>
		</g>
		<g id="XMLID_474_">
			<path id="XMLID_227_" fill="#7C7C7C" d="M142,29.5l3.1,11.7l9.5-6.8c0.5-0.3,0.6-1.2,0.4-2.2l0,0l0,0l0,0
				c-0.2-0.9-0.8-1.6-1.4-1.7L142,29.5z"/>
			<path id="XMLID_226_" d="M144.9,42l-3.5-13l12.3,1.2c0.8,0.1,1.5,0.9,1.8,2c0.3,1.2,0.1,2.2-0.5,2.7L144.9,42z M142.6,30.1
				l2.8,10.5l9-6.4c0.3-0.2,0.4-0.9,0.2-1.7c-0.2-0.8-0.7-1.4-1-1.4L142.6,30.1z"/>
		</g>
		<g id="XMLID_225_">
			<path id="XMLID_620_" fill="#7C7C7C" d="M120.5,96.9"/>
		</g>
		<g id="XMLID_213_">
			<path id="XMLID_214_" fill="#7C7C7C" d="M32.1,88.9c0,0-7.3,28-11.6,28S14.9,94.3,11.9,88"/>
		</g>
		<g id="XMLID_211_">
			<path id="XMLID_212_" fill="#5B5B5B" d="M32.1,88.8c0,0-7.3,24.6-11.6,24.6s-4.9-20.5-8.7-25.5"/>
		</g>
		<g id="XMLID_334_">
			<path id="XMLID_617_" fill="#7C7C7C" d="M167.7,88.9c0,0,7.3,28,11.6,28c4.3,0,5.6-22.5,8.6-28.9"/>
		</g>
		<g id="XMLID_210_">
			<path id="XMLID_616_" fill="#5B5B5B" d="M167.7,88.8c0,0,7.3,24.6,11.6,24.6c4.3,0,4.9-20.5,8.7-25.5"/>
		</g>
		<g id="XMLID_483_">
			<g id="XMLID_497_">
				<path id="XMLID_615_" fill="#F1CE24" d="M43,194.2c0-7.8,2.9-21.2-0.6-26.5l0,0c-15.6-17.9-25.2-43-25-70.8
					c0.4-53,37-95.8,81.7-96.4C46.3,1,3.1,43.9,2.6,96.9c-0.3,27.8,11.1,52.9,29.5,70.8l0,0c4.1,5.2,0.7,18.7,0.7,26.5
					c0,5.5,8,6.4,12.6,4.3C43.9,197.6,43,196.2,43,194.2z"/>
			</g>
			<g id="XMLID_502_">
				<path id="XMLID_209_" fill="#F1CE24" d="M101.4,0.5c-0.5,0-1,0-1.4,0c0.4,0,0.8,0,1.2,0c45.1,0.8,81.4,44.1,81.4,97.4
					c0,27-9.3,51.5-24.4,69.2c0,0.1-0.1,0.3-0.3,0.7c-3.5,5.2-0.6,18.7-0.6,26.5c0,2.1-0.9,3.5-2.3,4.3c4.6,2.1,12.6,1.2,12.6-4.3
					c0-7.8-3.4-21.2,0.7-26.5c0.3-0.3,0.4-0.6,0.4-0.7c17.8-17.7,28.8-42.1,28.8-69.2C197.4,44.6,154.6,1.2,101.4,0.5z"/>
			</g>
		</g>
		<g id="XMLID_481_">
			<path id="XMLID_208_" fill="#5B5B5B" d="M64.9,14.2c-2.4-3.5-2.9-7.7-1.7-11.6c-0.5,0.3-1,0.5-1.4,0.9
				c-5.5,3.8-8.3,13.7-4.5,19.2s12.9,4.4,18.4,0.6c1.5-1,2.6-2.4,3.5-3.8C73.8,20.6,68.1,18.7,64.9,14.2z"/>
			<path id="XMLID_207_" d="M65.6,26.8c-3.8,0-6.9-1.4-8.7-4c-1.9-2.6-2.3-6.5-1.3-10.6c1-3.9,3.2-7.3,5.9-9.2
				c0.5-0.3,1-0.6,1.5-0.9l1-0.5l-0.3,1c-1.2,3.9-0.6,8,1.6,11.2l0,0c3,4.3,8.4,6.2,13.8,5l1-0.2l-0.5,0.9c-0.9,1.6-2.1,2.9-3.6,4
				c-2.8,2-6.6,3.2-10.1,3.3C65.8,26.8,65.7,26.8,65.6,26.8z M62.5,3.5c-0.2,0.1-0.3,0.2-0.4,0.3C57,7.4,54,17,57.7,22.3
				c1.7,2.4,4.6,3.6,8.2,3.6c3.3-0.1,6.9-1.2,9.6-3.1c1.1-0.8,2-1.7,2.8-2.8c-5.4,0.8-10.7-1.3-13.7-5.6l0,0
				C62.3,11.3,61.6,7.3,62.5,3.5z"/>
		</g>
		<g id="XMLID_480_">
			<path id="XMLID_206_" fill="#5B5B5B" d="M135.1,14.2c2.4-3.5,2.9-7.7,1.7-11.6c0.5,0.3,1,0.5,1.4,0.9c5.5,3.8,8.3,13.7,4.5,19.2
				c-3.8,5.5-12.9,4.4-18.4,0.6c-1.5-1-2.6-2.4-3.5-3.8C126.2,20.6,131.9,18.7,135.1,14.2z"/>
			<path id="XMLID_195_" d="M134.4,26.8c-0.1,0-0.2,0-0.3,0c-3.5-0.1-7.2-1.3-10.1-3.3c-1.5-1.1-2.7-2.4-3.6-4l-0.5-0.9l1,0.2
				c5.4,1.2,10.8-0.7,13.8-5c2.3-3.2,2.9-7.3,1.6-11.2l-0.3-1l1,0.5c0.5,0.3,1,0.6,1.5,0.9c2.7,1.9,4.9,5.4,5.9,9.2
				c1,4.1,0.6,7.9-1.3,10.6C141.3,25.4,138.2,26.8,134.4,26.8z M121.8,20c0.8,1.1,1.7,2,2.8,2.8c6.9,4.8,14.9,3.6,17.8-0.5
				c3.7-5.3,0.7-14.9-4.4-18.5c-0.1-0.1-0.3-0.2-0.4-0.3c0.9,3.9,0.2,7.8-2.1,10.9l0,0C132.5,18.7,127.2,20.8,121.8,20z"/>
		</g>
		<g id="XMLID_602_" opacity="0.4">
			<path id="XMLID_194_" fill="#ADADAD" d="M54.2,37.1l2-7.5l-11.6,1.1c-0.6,0.1-1.2,0.8-1.4,1.7l0,0l0,0l0,0
				c-0.1,0.2-0.1,0.4-0.1,0.6C48.3,33.2,52.6,34.8,54.2,37.1z"/>
		</g>
		<g id="XMLID_599_" opacity="0.4">
			<path id="XMLID_193_" fill="#ADADAD" d="M144.1,37.1l-2-7.5l11.6,1.1c0.6,0.1,1.2,0.8,1.4,1.7l0,0l0,0l0,0
				c0.1,0.2,0.1,0.4,0.1,0.6C150.1,33.2,145.8,34.8,144.1,37.1z"/>
		</g>
		<g id="XMLID_473_">
			<path id="XMLID_613_" fill="#F8E327" d="M126.8,109.1H73.2c-19,0-34.1-16.5-29.7-33.7l10.7-42.5c3.3-13.1,15.4-22.4,29.6-22.4
				h32.3c14.2,0,26.3,9.2,29.6,22.4l10.7,42.5C160.8,92.6,145.8,109.1,126.8,109.1z"/>
		</g>
		<g id="XMLID_484_">
			<path id="XMLID_192_" d="M126.8,109.5H73.2c-9.9,0-19.3-4.5-25.2-12.1c-5.1-6.6-6.9-14.5-5-22.2l10.7-42.5
				C57.1,19.3,69.4,10,83.8,10h32.3c14.3,0,26.7,9.3,30.1,22.7l10.7,42.5c1.9,7.7,0.2,15.6-5,22.2
				C146.1,105,136.7,109.5,126.8,109.5z M83.8,11c-13.9,0-25.9,9.1-29.2,22L43.9,75.5c-1.9,7.4-0.2,15.1,4.8,21.4
				c5.7,7.3,14.9,11.7,24.5,11.7h53.5c9.6,0,18.8-4.4,24.5-11.7c5-6.4,6.7-14,4.8-21.4L145.4,33c-3.3-13-15.3-22-29.2-22H83.8z"/>
		</g>
		<g id="XMLID_191_">
			<ellipse id="XMLID_612_" fill="#FFFFFF" cx="100" cy="85.3" rx="56.3" ry="30.1"/>
		</g>
		<g id="XMLID_190_">
			<circle id="XMLID_611_" fill="#D1D1D1" cx="82.8" cy="36.7" r="5"/>
		</g>
		<g id="XMLID_187_">
			<circle id="XMLID_610_" fill="#D1D1D1" cx="117.2" cy="36.7" r="5"/>
		</g>
		<g id="XMLID_495_">
			<circle id="XMLID_609_" fill="#FFFFFF" cx="117.6" cy="37.2" r="4.6"/>
		</g>
		<g id="XMLID_496_">
			<circle id="XMLID_608_" fill="#FFFFFF" cx="83.1" cy="37.2" r="4.6"/>
		</g>
		<g id="XMLID_485_">
			<path id="XMLID_186_" d="M100,115.9c-29.8,0-55.4-13.3-57.2-29.6l0.9-0.1c1.7,15.9,27,28.8,56.3,28.8s54.6-12.9,56.3-28.7
				l0.9,0.1C155.4,102.7,129.8,115.9,100,115.9z"/>
		</g>
		<g id="XMLID_342_">
			<circle id="XMLID_185_" cx="71.5" cy="79.4" r="5.7"/>
			<path id="XMLID_174_" fill="#7C7C7C" d="M71.5,85.5c-3.4,0-6.1-2.8-6.1-6.1s2.8-6.1,6.1-6.1c3.3,0,6.1,2.8,6.1,6.1
				S74.9,85.5,71.5,85.5z M71.5,74.2c-2.9,0-5.2,2.3-5.2,5.2c0,2.9,2.3,5.2,5.2,5.2c2.9,0,5.2-2.3,5.2-5.2S74.4,74.2,71.5,74.2z"/>
		</g>
		<g id="XMLID_341_">
			<circle id="XMLID_173_" cx="128.5" cy="79.4" r="5.7"/>
			<path id="XMLID_170_" fill="#7C7C7C" d="M128.5,85.5c-3.4,0-6.1-2.8-6.1-6.1s2.8-6.1,6.1-6.1c3.4,0,6.1,2.8,6.1,6.1
				S131.9,85.5,128.5,85.5z M128.5,74.2c-2.9,0-5.2,2.3-5.2,5.2c0,2.9,2.3,5.2,5.2,5.2c2.9,0,5.2-2.3,5.2-5.2S131.4,74.2,128.5,74.2
				z"/>
		</g>
		<g id="XMLID_340_">
			<ellipse id="XMLID_169_" fill="#BC6C6C" cx="100" cy="96.9" rx="20.5" ry="5.2"/>
			<path id="XMLID_168_" fill="#261F1F" d="M100,102.6c-5.5,0-10.7-0.6-14.6-1.6c-2.9-0.7-6.4-2.1-6.4-4.2c0-3.7,10.8-5.7,21-5.7
				s21,2,21,5.7c0,2.1-3.5,3.4-6.4,4.2C110.7,102.1,105.5,102.6,100,102.6z M100,92.2c-11.8,0-20.1,2.5-20.1,4.8
				c0,2.3,8.2,4.8,20.1,4.8s20.1-2.5,20.1-4.8C120.1,94.7,111.8,92.2,100,92.2z"/>
		</g>
		<g id="XMLID_338_">
			<path id="XMLID_167_" fill="#261F1F" d="M136,102.1c-8.3,0-14.6-3.1-16.1-5.6l0.8-0.5c2.2,3.7,15.5,8.7,30.3,1.6l0.4,0.8
				C146,101.1,140.7,102.1,136,102.1z"/>
		</g>
		<g id="XMLID_337_">
			<path id="XMLID_147_" fill="#261F1F" d="M64,102.1c-4.7,0-10-1-15.4-3.6l0.4-0.8c14.8,7.1,28.1,2,30.3-1.6l0.8,0.5
				C78.5,99,72.3,102.1,64,102.1z"/>
		</g>
		<g id="XMLID_486_">
			<circle id="XMLID_134_" fill="#261F1F" cx="84.2" cy="38.8" r="2.1"/>
		</g>
		<g id="XMLID_487_">
			<circle id="XMLID_37_" fill="#261F1F" cx="115.8" cy="37.6" r="2.1"/>
		</g>
		<g id="XMLID_501_" opacity="0.33">
			<g id="XMLID_503_">
				<path id="XMLID_605_" fill="#ADADAD" d="M127.4,111.5c0,0-11.6,3.9-27.1,3.9c0,0-12.6,0.7-29.3-4.6c-20.2-6.5-31.7-19-27.5-35.5
					l10.7-42.5c3.3-13.1,15.4-22.4,29.6-22.4H86c-12.3,0-22.7,9.2-25.6,22.4l-9.2,42.5C47.5,92.5,60.4,109,76.9,109l0,0
					c15.4,1.5,30.9,1.5,46.3,0l0,0c16.5,0,29.4-16.5,25.7-33.7l-9.2-42.5c-2.9-13.1-13.3-22.4-25.6-22.4h2.2
					c14.2,0,26.3,9.2,29.6,22.4l10.7,42.5C160.7,91.9,149.1,105,127.4,111.5"/>
			</g>
		</g>
		<g id="XMLID_500_">
			<ellipse id="XMLID_604_" fill="#F9E454" cx="75.4" cy="137.3" rx="19" ry="11.3"/>
		</g>
		<g id="XMLID_504_">
			<ellipse id="XMLID_603_" fill="#FEF789" cx="75.4" cy="134.5" rx="19" ry="11.3"/>
		</g>
		<g id="XMLID_506_">
			<ellipse id="XMLID_601_" fill="#F9E454" cx="124.6" cy="137.3" rx="19" ry="11.3"/>
		</g>
		<g id="XMLID_505_">
			<ellipse id="XMLID_600_" fill="#FEF789" cx="124.6" cy="134.5" rx="19" ry="11.3"/>
		</g>
		<g id="XMLID_589_">
			<g id="XMLID_543_">
				<path id="XMLID_588_" fill="#333333" d="M47.3,200H33.7c-0.7,0-1.2-0.5-1.2-1.2v-6.5c0-0.6,0.5-1.2,1.1-1.3l0,0
					c1.9-0.3,3.8,0.2,5.3,1.4l1.6,1.3l1.5-1.3c1.5-1.2,3.4-1.7,5.3-1.4l0,0c0.6,0.1,1.1,0.7,1.1,1.3v6.4
					C48.5,199.5,47.9,200,47.3,200z"/>
			</g>
			<g id="XMLID_542_">
				<path id="XMLID_587_" fill="#5B5B5B" d="M40.5,200c0,0-7.4,0-7.4-2.2v-5.3c0-0.6,0.4-1.1,1-1.2l0,0c1.7-0.3,3.5,0.2,4.9,1.3
					l1.5,1.2l1.4-1.2c1.4-1.1,3.2-1.6,4.9-1.3l0,0c0.6,0.1,1,0.6,1,1.2v5.2C47.9,200,40.5,200,40.5,200z"/>
			</g>
			<g id="XMLID_538_">
				<g id="XMLID_271_">
					<defs>
						<path id="XMLID_274_" d="M40.5,200c0,0-0.3-1-0.3-3.8c0-2.8-4.4-5.2-6.5-5.2l-0.8-0.7l4.3,0.1l3.2,2.5l0.1,0.7V200z"/>
					</defs>
					<clipPath id="XMLID_2_">
						<use xlink:href="#XMLID_274_"  overflow="visible"/>
					</clipPath>
					<g id="XMLID_541_" clip-path="url(#XMLID_2_)">
						<path id="XMLID_586_" fill="#333333" d="M47.3,200H33.7c-0.7,0-1.2-0.5-1.2-1.2v-6.5c0-0.6,0.5-1.2,1.1-1.3l0,0
							c1.9-0.3,3.8,0.2,5.3,1.4l1.6,1.3l1.5-1.3c1.5-1.2,3.4-1.7,5.3-1.4l0,0c0.6,0.1,1.1,0.7,1.1,1.3v6.4
							C48.5,199.5,47.9,200,47.3,200z"/>
					</g>
				</g>
			</g>
			<g id="XMLID_534_">
				<g id="XMLID_266_">
					<defs>
						<path id="XMLID_269_" d="M40.5,200c0,0,0.3-1,0.3-3.8c0-2.8,4.4-5.2,6.5-5.2l0.8-0.7l-4.3,0.1l-3.2,2.5l-0.1,0.7V200z"/>
					</defs>
					<clipPath id="XMLID_3_">
						<use xlink:href="#XMLID_269_"  overflow="visible"/>
					</clipPath>
					<g id="XMLID_536_" clip-path="url(#XMLID_3_)">
						<path id="XMLID_584_" fill="#333333" d="M33.7,200h13.5c0.7,0,1.2-0.5,1.2-1.2v-6.5c0-0.6-0.5-1.2-1.1-1.3l0,0
							c-1.9-0.3-3.8,0.2-5.3,1.4l-1.6,1.3l-1.5-1.3c-1.5-1.2-3.4-1.7-5.3-1.4l0,0c-0.6,0.1-1.1,0.7-1.1,1.3v6.4
							C32.5,199.5,33.1,200,33.7,200z"/>
					</g>
				</g>
			</g>
		</g>
		<g id="XMLID_590_">
			<g id="XMLID_598_">
				<path id="XMLID_582_" fill="#333333" d="M166.3,200h-13.5c-0.7,0-1.2-0.5-1.2-1.2v-6.5c0-0.6,0.5-1.2,1.1-1.3l0,0
					c1.9-0.3,3.8,0.2,5.3,1.4l1.6,1.3l1.5-1.3c1.5-1.2,3.4-1.7,5.3-1.4l0,0c0.6,0.1,1.1,0.7,1.1,1.3v6.4
					C167.5,199.5,167,200,166.3,200z"/>
			</g>
			<g id="XMLID_597_">
				<path id="XMLID_581_" fill="#5B5B5B" d="M159.5,200c0,0-7.4,0-7.4-2.2v-5.3c0-0.6,0.4-1.1,1-1.2l0,0c1.7-0.3,3.5,0.2,4.9,1.3
					l1.5,1.2l1.4-1.2c1.4-1.1,3.2-1.6,4.9-1.3l0,0c0.6,0.1,1,0.6,1,1.2v5.2C166.9,200,159.5,200,159.5,200z"/>
			</g>
			<g id="XMLID_594_">
				<g id="XMLID_252_">
					<defs>
						<path id="XMLID_255_" d="M159.5,200c0,0-0.3-1-0.3-3.8c0-2.8-4.4-5.2-6.5-5.2l-0.8-0.7l4.3,0.1l3.2,2.5l0.1,0.7V200z"/>
					</defs>
					<clipPath id="XMLID_4_">
						<use xlink:href="#XMLID_255_"  overflow="visible"/>
					</clipPath>
					<g id="XMLID_596_" clip-path="url(#XMLID_4_)">
						<path id="XMLID_580_" fill="#333333" d="M166.3,200h-13.5c-0.7,0-1.2-0.5-1.2-1.2v-6.5c0-0.6,0.5-1.2,1.1-1.3l0,0
							c1.9-0.3,3.8,0.2,5.3,1.4l1.6,1.3l1.5-1.3c1.5-1.2,3.4-1.7,5.3-1.4l0,0c0.6,0.1,1.1,0.7,1.1,1.3v6.4
							C167.5,199.5,167,200,166.3,200z"/>
					</g>
				</g>
			</g>
			<g id="XMLID_591_">
				<g id="XMLID_243_">
					<defs>
						<path id="XMLID_250_" d="M159.5,200c0,0,0.3-1,0.3-3.8c0-2.8,4.4-5.2,6.5-5.2l0.8-0.7l-4.3,0.1l-3.2,2.5l-0.1,0.7V200z"/>
					</defs>
					<clipPath id="XMLID_5_">
						<use xlink:href="#XMLID_250_"  overflow="visible"/>
					</clipPath>
					<g id="XMLID_593_" clip-path="url(#XMLID_5_)">
						<path id="XMLID_578_" fill="#333333" d="M152.8,200h13.5c0.7,0,1.2-0.5,1.2-1.2v-6.5c0-0.6-0.5-1.2-1.1-1.3l0,0
							c-1.9-0.3-3.8,0.2-5.3,1.4l-1.6,1.3l-1.5-1.3c-1.5-1.2-3.4-1.7-5.3-1.4l0,0c-0.6,0.1-1.1,0.7-1.1,1.3v6.4
							C151.6,199.5,152.1,200,152.8,200z"/>
					</g>
				</g>
			</g>
		</g>
	</g>
	<g id="XMLID_239_">
		<path id="XMLID_241_" d="M101.4,0.9c12.4,0.2,24.5,2.7,35.7,7.4l0.1-1C126,2.7,113.9,0.2,101.5,0C87.9-0.2,74.8,2.4,62.6,7.4
			l0.2,0.9C74.9,3.3,87.9,0.7,101.4,0.9z"/>
		<path id="XMLID_245_" d="M169.7,29.1c-7.8-7.9-16.8-14.4-26.5-19.2l0.4,1.3c9.3,4.7,17.9,10.9,25.4,18.5c18,18.2,28,42.4,28.1,68
			c0,26-10.2,50.5-28.7,68.8l-0.2,0.2v0.2c-0.1,0.1-0.1,0.2-0.3,0.4c-3,3.9-2.1,11.8-1.4,18.8c0.3,3,0.6,5.7,0.6,8
			c0,1.6-0.7,2.8-2.1,3.7c-1.2,0.8-3,1.2-4.9,1.2c-3.7,0-7.8-1.7-7.8-4.5c0-5.1-7.1-7.6-10.2-8.4c-0.4-0.1-0.7-0.1-1-0.1
			c-0.4,0-0.7,0.1-1.2,0.2c-4.4,1.5-26.8,8.6-40,8.6c-13.7,0-27-2.8-39.5-8.4c-0.8-0.4-1.7-0.4-2.5-0.2c-3,0.8-10,3.3-10,8.3
			c0,2.8-4,4.5-7.8,4.5c-1.9,0-3.7-0.4-4.9-1.2c-1.4-0.9-2.1-2.1-2.1-3.7c0-2.3,0.3-5.1,0.6-8c0.8-7,1.6-14.9-1.4-18.8v-0.1
			c-9.3-9-16.5-19.6-21.6-31.5C5.5,123.5,2.9,110.4,3,96.9C3.3,71,13.7,46.7,32.3,28.6c7.2-7,15.2-12.7,23.8-17.1l0.5-1.3
			c-9,4.5-17.4,10.5-24.9,17.7C12.9,46.3,2.4,70.8,2.1,96.9c-0.1,13.6,2.5,26.8,7.8,39.3c5.1,12,12.4,22.7,21.8,31.8
			c2.7,3.5,1.9,11.3,1.2,18.1c-0.3,3-0.6,5.8-0.6,8.1c0,1.9,0.8,3.5,2.5,4.5c1.4,0.8,3.3,1.3,5.4,1.3c4.3,0,8.7-2,8.7-5.4
			c0-4.4,6.5-6.7,9.3-7.5c0.6-0.2,1.3-0.2,1.9,0.1c12.6,5.7,26,8.5,39.9,8.5c13.4,0,35.9-7.2,40.3-8.6c0.5-0.1,1.1-0.1,1.6,0
			c2.2,0.6,9.5,2.9,9.5,7.5c0,3.4,4.4,5.4,8.7,5.4c2.1,0,4-0.5,5.5-1.4c1.6-1.1,2.5-2.6,2.5-4.5c0-2.3-0.3-5.1-0.6-8.1
			c-0.7-6.8-1.6-14.6,1.2-18.1c0.2-0.3,0.3-0.5,0.4-0.7c18.6-18.5,28.8-43.2,28.8-69.4C197.9,71.9,187.9,47.5,169.7,29.1z"/>
	</g>
</g>

		</g>
	</g>
</svg>