<?xml version="1.0" standalone="no"?><!DOCTYPE svg PUBLIC "-//W3C//DTD SVG 1.1//EN" "http://www.w3.org/Graphics/SVG/1.1/DTD/svg11.dtd"><svg t="1550472318819" class="icon" style="" viewBox="0 0 1065 1024" version="1.1" xmlns="http://www.w3.org/2000/svg" p-id="4788" xmlns:xlink="http://www.w3.org/1999/xlink" width="208.0078125" height="200"><defs><style type="text/css"></style></defs><path d="M228.884654 66.536237h606.810477A163.01378 163.01378 0 0 1 998.043549 228.884654v340.665531A163.01378 163.01378 0 0 1 835.695131 731.898602H477.730179a96.477543 96.477543 0 0 0-66.536237 27.94522L266.144946 904.227455v-77.847397A96.477543 96.477543 0 0 0 177.651752 731.898602C136.399285 727.241066 66.536237 709.276282 66.536237 632.094248V228.884654A163.01378 163.01378 0 0 1 228.884654 66.536237m0-66.536237A228.884654 228.884654 0 0 0 0 228.884654V632.094248A166.340591 166.340591 0 0 0 171.66349 798.434839a29.941306 29.941306 0 0 1 27.94522 29.275944v167.005954a29.275944 29.275944 0 0 0 29.941306 29.275944 28.610582 28.610582 0 0 0 20.626234-8.649711l206.927695-206.927696a30.606669 30.606669 0 0 1 20.626234-9.980435h357.964952A228.884654 228.884654 0 0 0 1064.579785 569.550185V228.884654A228.884654 228.884654 0 0 0 835.695131 0z" fill="#333333" p-id="4789"></path><path d="M266.144946 477.064816a66.536237 66.536237 0 1 0-66.536236-66.536236 66.536237 66.536237 0 0 0 66.536236 66.536236zM532.289893 477.064816a66.536237 66.536237 0 1 0-66.536237-66.536236 66.536237 66.536237 0 0 0 66.536237 66.536236zM798.434839 477.064816a66.536237 66.536237 0 1 0-66.536237-66.536236 66.536237 66.536237 0 0 0 66.536237 66.536236z" fill="#333333" p-id="4790"></path></svg>