<?xml version="1.0" standalone="no"?><!DOCTYPE svg PUBLIC "-//W3C//DTD SVG 1.1//EN" "http://www.w3.org/Graphics/SVG/1.1/DTD/svg11.dtd"><svg t="1559026496793" class="icon" style="" viewBox="0 0 1024 1024" version="1.1" xmlns="http://www.w3.org/2000/svg" p-id="2896" xmlns:xlink="http://www.w3.org/1999/xlink" width="200" height="200"><defs><style type="text/css"></style></defs><path d="M1005.438743 18.561257A63.99992 63.99992 0 0 0 959.9988 0.00128H383.99952a63.99992 63.99992 0 0 0-63.99992 63.99992v534.399332A220.799724 220.799724 0 0 0 223.99972 576.00056 223.99972 223.99972 0 1 0 447.99944 800.00028V384.0008h447.99944v150.399812A220.799724 220.799724 0 0 0 799.999 512.00064a223.99972 223.99972 0 1 0 223.99972 223.99972V64.0012a63.99992 63.99992 0 0 0-18.559977-45.439943zM223.99972 896.00016A95.99988 95.99988 0 1 1 319.9996 800.00028 95.99988 95.99988 0 0 1 223.99972 896.00016zM447.99944 256.00096V128.00112h447.99944v127.99984z m351.99956 575.99928a95.99988 95.99988 0 1 1 95.99988-95.99988 95.99988 95.99988 0 0 1-95.99988 95.99988z" fill="#0bfee2" p-id="2897"></path></svg>