<?xml version="1.0" standalone="no"?><!DOCTYPE svg PUBLIC "-//W3C//DTD SVG 1.1//EN" "http://www.w3.org/Graphics/SVG/1.1/DTD/svg11.dtd"><svg t="1554201714893" class="icon" style="" viewBox="0 0 1024 1024" version="1.1" xmlns="http://www.w3.org/2000/svg" p-id="3749" xmlns:xlink="http://www.w3.org/1999/xlink" width="200" height="200"><defs><style type="text/css"></style></defs><path d="M306.7 681.6h-165c-7.4 0-13.4-6-13.4-13.4V385.8c0-7.4 6-13.4 13.4-13.4h165.1v309.2z" fill="#ffffff" p-id="3750"></path><path d="M586.1 840.6L306.7 682V372L586 213.4c18.8-10.6 39.9 6.8 39.9 32.9v561.4c0.1 26.1-21.1 43.5-39.8 32.9zM701.9 604.6c-4.7 16-10.8 31.2-18.2 45.4-3.7 7.2-1.5 16 5.2 20.6 7.9 5.4 18.8 2.7 23.1-5.8 8.4-16.2 15.3-33.4 20.5-51.3 21.3-72.8 12.9-149.5-23.5-216-1.7-3.1-3.5-6.2-5.3-9.2-4.9-8.2-15.9-10.3-23.5-4.5l-0.1 0.1c-6.4 5-8.1 13.9-3.9 20.9 34.7 58.1 46.1 129.9 25.7 199.8z" fill="#ffffff" p-id="3751"></path><path d="M780.4 367.8c-3.3-6.5-6.7-12.8-10.4-19-4.8-8.1-15.5-10.4-23.1-4.8l-0.2 0.1c-6.7 4.8-8.6 13.9-4.4 21 44.6 76.1 57.7 170.3 28.1 260.5-7.4 22.6-17.1 43.8-28.8 63.4-4.2 7.1-2.3 16.1 4.4 21 7.6 5.6 18.4 3.4 23.2-4.7 12.9-21.8 23.5-45.2 31.5-69.8 29.2-89.1 22-184.2-20.3-267.7z" fill="#ffffff" p-id="3752"></path><path d="M834 646c-9.6 29.2-22.3 56.5-37.8 81.7-4.4 7.2-2.6 16.6 4.4 21.5 7.5 5.3 18 3.2 22.8-4.6 16.9-27.6 30.6-57.3 40.9-88.6 17.6-53.6 24.1-109.1 19.5-164.8-4.5-53.8-19.2-105.7-43.7-154-4.7-9.4-9.8-18.5-15.2-27.4-4.7-7.7-14.7-10.1-22.3-5.3l-0.2 0.1c-7.4 4.7-9.6 14.4-5.1 21.8C853.5 419.2 870.4 535 834 646z" fill="#ffffff" p-id="3753"></path></svg>