<?xml version="1.0" standalone="no"?><!DOCTYPE svg PUBLIC "-//W3C//DTD SVG 1.1//EN" "http://www.w3.org/Graphics/SVG/1.1/DTD/svg11.dtd"><svg t="1550846142107" class="icon" style="" viewBox="0 0 1024 1024" version="1.1" xmlns="http://www.w3.org/2000/svg" p-id="6023" xmlns:xlink="http://www.w3.org/1999/xlink" width="200" height="200"><defs><style type="text/css"></style></defs><path d="M512 992a56.192 56.192 0 0 1-34.88-11.968l-60.8-48.256c-45.504-36.48-91.072-73.792-133.632-109.76l-26.176-22.272c-72.896-62.528-122.112-108.8-150.464-141.44C31.744 572.672 0 482.048 0 355.2 0 177.024 128 32 285.312 32 375.936 32 458.688 79.488 512 159.04 565.312 79.488 648.064 32 738.688 32 896 32 1024 177.024 1024 355.2a32 32 0 0 1-64 0c0-142.912-99.264-259.2-221.312-259.2-83.648 0-159.232 54.592-197.312 142.464-10.176 23.424-48.576 23.424-58.752 0C444.544 150.592 368.96 96 285.312 96 163.264 96 64 212.288 64 355.2c0 110.08 27.008 188.16 90.368 261.248 25.92 29.824 74.24 75.2 143.808 134.784l25.856 21.952c42.112 35.584 87.232 72.512 132.288 108.672l55.68 44.16 41.344-32.704a32 32 0 1 1 39.744 50.112l-46.08 36.48A56.192 56.192 0 0 1 512 992z" p-id="6024" fill="#ffffff"></path><path d="M759.744 832a31.808 31.808 0 0 1-20.608-7.552l-151.744-128a32 32 0 0 1 41.28-48.96l128.128 108.096 211.584-233.152a32 32 0 0 1 47.36 43.008l-232.256 256a32 32 0 0 1-23.744 10.56z" p-id="6025" fill="#ffffff"></path></svg>