<?xml version="1.0" standalone="no"?><!DOCTYPE svg PUBLIC "-//W3C//DTD SVG 1.1//EN" "http://www.w3.org/Graphics/SVG/1.1/DTD/svg11.dtd"><svg t="1550507203580" class="icon" style="" viewBox="0 0 1024 1024" version="1.1" xmlns="http://www.w3.org/2000/svg" p-id="2070" xmlns:xlink="http://www.w3.org/1999/xlink" width="200" height="200"><defs><style type="text/css"></style></defs><path d="M512 4.096C231.424 4.096 4.096 231.424 4.096 512s227.328 508.928 508.416 508.928 508.416-227.328 508.416-508.928S792.576 4.096 512 4.096z m0 941.568c-239.616 0-433.664-194.048-433.664-433.664S272.384 78.336 512 78.336s433.664 194.048 433.664 433.664-194.048 433.664-433.664 433.664z" fill="#F4DCCB" p-id="2071"></path><path d="M619.52 592.384h-76.8V510.976c60.928-14.336 105.472-71.168 100.352-137.728-5.12-63.488-56.832-114.688-119.808-119.808C442.368 247.296 376.32 313.856 382.464 394.24c4.608 56.832 46.08 103.424 99.84 116.736v81.408h-76.8c-15.872 0-28.672 12.8-28.672 28.672v3.072c0 15.872 12.8 28.672 28.672 28.672h76.8v88.576c0 16.896 13.312 30.208 30.208 30.208 16.896 0 30.208-13.824 30.208-30.208v-88.576h76.8c15.872 0 28.672-12.8 28.672-28.672v-3.072c0-15.872-12.8-28.672-28.672-28.672zM434.176 383.488c0-43.52 35.328-78.336 78.336-78.336 43.52 0 78.336 35.328 78.336 78.336s-34.816 78.336-78.336 78.336-78.336-35.328-78.336-78.336z" fill="#FF9D4D" p-id="2072"></path></svg>